<?xml version="1.0" encoding="UTF-8"?>
<svg width="24" height="24" viewBox="0 0 24 24" xmlns="http://www.w3.org/2000/svg">
    <path d="M17.0425 12.3219C17.0288 10.2175 18.7488 9.03 18.8275 8.97625C17.7744 7.42125 16.1656 7.19625 15.5869 7.17375C14.2313 7.0275 12.9188 7.97625 12.2288 7.97625C11.5238 7.97625 10.4419 7.19125 9.29813 7.215C7.81125 7.23875 6.42188 8.115 5.65875 9.51C4.09125 12.3525 5.25188 16.5825 6.76125 18.6413C7.51125 19.6463 8.38875 20.7675 9.54938 20.7225C10.68 20.6738 11.1206 19.9988 12.4763 19.9988C13.8169 19.9988 14.2275 20.7225 15.4163 20.6925C16.6425 20.6738 17.4113 19.6763 18.1388 18.6563C19.0069 17.4938 19.3613 16.3538 19.3763 16.3013C19.3463 16.2919 17.0588 15.3844 17.0425 12.3219Z" fill="currentColor"/>
    <path d="M15.0881 5.43375C15.7006 4.68375 16.1119 3.66375 15.9869 2.625C15.1119 2.66625 14.0356 3.225 13.3944 3.95625C12.8194 4.605 12.3244 5.65875 12.4644 6.66C13.4381 6.74625 14.4456 6.18375 15.0881 5.43375Z" fill="currentColor"/>
</svg> 